<svg width="48" height="48" viewBox="0 0 48 48" fill="none" xmlns="http://www.w3.org/2000/svg">
<path d="M12.9511 45.6688L12.9714 45.679L12.9922 45.6882C13.8133 46.0531 14.7368 46.2201 15.7382 46.2201H26.4903C30.717 46.2201 34.0695 45.1378 36.3557 42.7994C38.6378 40.4651 39.6908 37.0492 39.6908 32.7409C39.6908 28.5633 38.7165 25.2824 36.5601 23.1236C34.4404 20.9641 31.2325 19.9861 27.1588 19.9861H21.5877C21.0421 19.9861 20.84 19.8461 20.7568 19.7526C20.5435 19.4611 20.4708 19.2093 20.4708 18.9805C20.4708 18.6952 20.5556 18.4538 20.7461 18.221L20.7595 18.2046L20.7721 18.1877C20.8584 18.0728 21.0459 17.9192 21.5877 17.9192H30.9471C31.9812 17.9192 32.9347 17.7538 33.7864 17.3952L33.7976 17.3905L33.8087 17.3855C34.6555 17.0044 35.3833 16.504 35.9696 15.8727C36.5432 15.2549 36.9673 14.5446 37.2361 13.7492C37.5319 12.9809 37.6852 12.1974 37.6852 11.4039C37.6852 10.6132 37.533 9.84479 37.2329 9.10502C36.9639 8.31365 36.5384 7.61846 35.957 7.03307C35.3773 6.4128 34.6737 5.93288 33.8621 5.58821C33.0047 5.18622 32.0435 5 31.0028 5H22.312C18.0481 5 14.6678 6.09154 12.363 8.44848C10.0623 10.8013 9 14.2451 9 18.5905C9 22.773 9.99545 26.0459 12.2038 28.1693C14.3883 30.2698 17.5589 31.234 21.532 31.234H27.1031C27.6449 31.234 27.8324 31.3875 27.9187 31.5025L27.934 31.523L27.9504 31.5427C28.1906 31.8308 28.2758 32.0923 28.2758 32.351C28.2758 32.555 28.2035 32.7998 27.9504 33.1035L27.9504 33.1035L27.9447 33.1105C27.8687 33.2034 27.6738 33.3565 27.1031 33.3565H15.8496C14.8355 33.3565 13.8913 33.5465 13.0369 33.949C12.2534 34.2989 11.5692 34.7839 10.9942 35.4031L10.9922 35.4053C10.4455 35.9976 10.0428 36.6963 9.77835 37.486C9.51976 38.2215 9.38997 38.9813 9.38997 39.7604C9.38997 40.5734 9.51867 41.3673 9.77555 42.138L9.77832 42.1463L9.78124 42.1546C10.0461 42.905 10.4436 43.588 10.9678 44.1995L10.9797 44.2135L10.9922 44.227C11.5304 44.81 12.1892 45.2878 12.9511 45.6688Z" fill="white" stroke="#322A42" stroke-width="2"/>
<path d="M39 7C39 9.76142 36.7614 12 34 12C31.2386 12 29 9.76142 29 7C29 4.23858 31.2386 2 34 2C36.7614 2 39 4.23858 39 7Z" fill="#EB1C42" stroke="#322A42" stroke-width="2"/>
</svg>
