<svg width="48" height="48" viewBox="0 0 48 48" fill="none" xmlns="http://www.w3.org/2000/svg">
<path d="M17.4158 45.3395L17.4366 45.3488C18.1484 45.6651 18.9443 45.8078 19.8 45.8078H28.7942C32.3561 45.8078 35.2098 44.8955 37.1636 42.8971C39.1133 40.903 40 37.9971 40 34.3689C40 30.8532 39.1805 28.0582 37.334 26.2091C35.518 24.3592 32.7837 23.5359 29.3534 23.5359H24.6932C24.2889 23.5359 24.1619 23.4389 24.1249 23.4005C23.9679 23.1836 23.9223 23.0083 23.9223 22.8583C23.9223 22.6579 23.9798 22.4925 24.1157 22.3264L24.1291 22.3101L24.1417 22.2932C24.1733 22.2511 24.2728 22.134 24.6932 22.134H32.5223C33.4046 22.134 34.2246 21.9928 34.9609 21.6828L34.9721 21.6781L34.9832 21.6731C35.7085 21.3467 36.3362 20.9161 36.8435 20.3698C37.3381 19.837 37.7046 19.2239 37.9369 18.5378C38.1903 17.8788 38.3223 17.2046 38.3223 16.5204C38.3223 15.839 38.1913 15.1768 37.9337 14.5402C37.7012 13.8581 37.3333 13.2571 36.8309 12.7507C36.3302 12.2155 35.7237 11.8024 35.0274 11.5062C34.2855 11.1589 33.458 11 32.5689 11H25.299C21.7061 11 18.8291 11.92 16.8598 13.9339C14.8945 15.9436 14 18.8728 14 22.532C14 26.0527 14.8376 28.8428 16.7302 30.6626L17.4233 29.9417L16.7302 30.6626C18.5989 32.4594 21.2989 33.2718 24.6466 33.2718H29.3068C29.7272 33.2718 29.8267 33.389 29.8583 33.4311L29.8736 33.4516L29.89 33.4713C30.0694 33.6865 30.1243 33.869 30.1243 34.0427C30.1243 34.1678 30.0824 34.3367 29.89 34.5676L29.89 34.5676L29.8843 34.5745C29.863 34.6006 29.7561 34.7204 29.3068 34.7204H19.8932C19.0248 34.7204 18.2112 34.883 17.4723 35.2309C16.798 35.5322 16.2079 35.9504 15.7119 36.4846L15.7099 36.4868C15.236 37.0001 14.8879 37.6047 14.6599 38.2851C14.4378 38.9175 14.3262 39.5709 14.3262 40.2408C14.3262 40.9384 14.4367 41.6199 14.6571 42.2813L14.6599 42.2896L14.6628 42.2979C14.8913 42.9451 15.2341 43.534 15.6854 44.0605L15.6974 44.0745L15.7099 44.088C16.1751 44.5921 16.7429 45.0031 17.3955 45.3294L17.4158 45.3395Z" fill="#92FFD8" stroke="#322A42" stroke-width="2"/>
<path d="M14.4158 42.3395L14.4366 42.3488C15.1484 42.6651 15.9443 42.8078 16.8 42.8078H25.7942C29.3561 42.8078 32.2098 41.8955 34.1636 39.8971C36.1133 37.903 37 34.9971 37 31.3689C37 27.8532 36.1805 25.0582 34.334 23.2091C32.518 21.3592 29.7837 20.5359 26.3534 20.5359H21.6932C21.2889 20.5359 21.1619 20.4389 21.1249 20.4005C20.9679 20.1836 20.9223 20.0083 20.9223 19.8583C20.9223 19.6579 20.9798 19.4925 21.1157 19.3264L21.1291 19.3101L21.1417 19.2932C21.1733 19.2511 21.2728 19.134 21.6932 19.134H29.5223C30.4046 19.134 31.2246 18.9928 31.9609 18.6828L31.9721 18.6781L31.9832 18.6731C32.7085 18.3467 33.3362 17.9161 33.8435 17.3698C34.3381 16.837 34.7046 16.2239 34.9369 15.5378C35.1903 14.8788 35.3223 14.2046 35.3223 13.5204C35.3223 12.839 35.1913 12.1768 34.9337 11.5402C34.7012 10.8581 34.3333 10.2571 33.8309 9.75072C33.3302 9.21549 32.7237 8.80236 32.0274 8.50622C31.2855 8.15893 30.458 8 29.5689 8H22.299C18.7061 8 15.8291 8.92 13.8598 10.9339C11.8945 12.9436 11 15.8728 11 19.532C11 23.0527 11.8376 25.8428 13.7302 27.6626L14.4233 26.9417L13.7302 27.6626C15.5989 29.4594 18.2989 30.2718 21.6466 30.2718H26.3068C26.7272 30.2718 26.8267 30.389 26.8583 30.4311L26.8736 30.4516L26.89 30.4713C27.0694 30.6865 27.1243 30.869 27.1243 31.0427C27.1243 31.1678 27.0824 31.3367 26.89 31.5676L26.89 31.5676L26.8843 31.5745C26.863 31.6006 26.7561 31.7204 26.3068 31.7204H16.8932C16.0248 31.7204 15.2112 31.883 14.4723 32.2309C13.798 32.5322 13.2079 32.9504 12.7119 33.4846L12.7099 33.4868C12.236 34.0001 11.8879 34.6047 11.6599 35.2851C11.4378 35.9175 11.3262 36.5709 11.3262 37.2408C11.3262 37.9384 11.4367 38.6199 11.6571 39.2813L11.6599 39.2896L11.6628 39.2979C11.8913 39.9451 12.2341 40.534 12.6854 41.0605L12.6974 41.0745L12.7099 41.088C13.1751 41.5921 13.7429 42.0031 14.3955 42.3294L14.4158 42.3395Z" fill="#71CCDB" stroke="#322A42" stroke-width="2"/>
<path d="M11.4158 39.3395L11.4366 39.3488C12.1484 39.6651 12.9443 39.8078 13.8 39.8078H22.7942C26.3561 39.8078 29.2098 38.8955 31.1636 36.8971C33.1133 34.903 34 31.9971 34 28.3689C34 24.8532 33.1805 22.0582 31.334 20.2091C29.518 18.3592 26.7837 17.5359 23.3534 17.5359H18.6932C18.2889 17.5359 18.1619 17.4389 18.1249 17.4005C17.9679 17.1836 17.9223 17.0083 17.9223 16.8583C17.9223 16.6579 17.9798 16.4925 18.1157 16.3264L18.1291 16.3101L18.1417 16.2932C18.1733 16.2511 18.2728 16.134 18.6932 16.134H26.5223C27.4046 16.134 28.2246 15.9928 28.9609 15.6828L28.9721 15.6781L28.9832 15.6731C29.7085 15.3467 30.3362 14.9161 30.8435 14.3698C31.3381 13.837 31.7046 13.2239 31.9369 12.5378C32.1903 11.8788 32.3223 11.2046 32.3223 10.5204C32.3223 9.83903 32.1913 9.17684 31.9337 8.54025C31.7012 7.85813 31.3333 7.25713 30.8309 6.75072C30.3302 6.21549 29.7237 5.80236 29.0274 5.50622C28.2855 5.15893 27.458 5 26.5689 5H19.299C15.7061 5 12.8291 5.92 10.8598 7.93386C8.89453 9.94357 8 12.8728 8 16.532C8 20.0527 8.83757 22.8428 10.7302 24.6626L11.4233 23.9417L10.7302 24.6626C12.5989 26.4594 15.2989 27.2718 18.6466 27.2718H23.3068C23.7272 27.2718 23.8267 27.389 23.8583 27.4311L23.8736 27.4516L23.89 27.4713C24.0694 27.6865 24.1243 27.869 24.1243 28.0427C24.1243 28.1678 24.0824 28.3367 23.89 28.5676L23.89 28.5676L23.8843 28.5745C23.863 28.6006 23.7561 28.7204 23.3068 28.7204H13.8932C13.0248 28.7204 12.2112 28.883 11.4723 29.2309C10.798 29.5322 10.2079 29.9504 9.71186 30.4846L9.70986 30.4868C9.236 31.0001 8.88792 31.6047 8.65993 32.2851C8.43778 32.9175 8.32621 33.5709 8.32621 34.2408C8.32621 34.9384 8.4367 35.6199 8.65714 36.2813L8.65992 36.2896L8.66283 36.2979C8.89128 36.9451 9.23411 37.534 9.6854 38.0605L9.69738 38.0745L9.70986 38.088C10.1751 38.5921 10.7429 39.0031 11.3955 39.3294L11.4158 39.3395Z" fill="white" stroke="#322A42" stroke-width="2"/>
<path d="M38 7C38 9.76142 35.7614 12 33 12C30.2386 12 28 9.76142 28 7C28 4.23858 30.2386 2 33 2C35.7614 2 38 4.23858 38 7Z" fill="#EB1C42" stroke="#322A42" stroke-width="2"/>
</svg>
